<svg width="120" height="120" viewBox="0 0 120 120" fill="none" xmlns="http://www.w3.org/2000/svg">
  <!-- 背景圆形 -->
  <circle cx="60" cy="60" r="55" fill="url(#gradient)" stroke="#2563eb" stroke-width="2"/>
  
  <!-- 渐变定义 -->
  <defs>
    <linearGradient id="gradient" x1="0%" y1="0%" x2="100%" y2="100%">
      <stop offset="0%" style="stop-color:#3b82f6;stop-opacity:1" />
      <stop offset="100%" style="stop-color:#1d4ed8;stop-opacity:1" />
    </linearGradient>
  </defs>
  
  <!-- 鹿角 -->
  <path d="M45 35 L40 25 M45 35 L35 30 M45 35 L50 25" stroke="white" stroke-width="3" stroke-linecap="round"/>
  <path d="M75 35 L80 25 M75 35 L85 30 M75 35 L70 25" stroke="white" stroke-width="3" stroke-linecap="round"/>
  
  <!-- 鹿头轮廓 -->
  <ellipse cx="60" cy="50" rx="18" ry="15" fill="white"/>
  
  <!-- 眼睛 -->
  <circle cx="55" cy="47" r="2" fill="#1f2937"/>
  <circle cx="65" cy="47" r="2" fill="#1f2937"/>
  
  <!-- 鼻子 -->
  <ellipse cx="60" cy="53" rx="1.5" ry="1" fill="#1f2937"/>
  
  <!-- 文件夹图标 -->
  <rect x="35" y="70" width="50" height="30" rx="3" fill="white" stroke="#3b82f6" stroke-width="2"/>
  <rect x="35" y="65" width="20" height="8" rx="2" fill="#3b82f6"/>
  
  <!-- 文件图标 -->
  <rect x="42" y="78" width="8" height="10" rx="1" fill="#3b82f6"/>
  <rect x="52" y="78" width="8" height="10" rx="1" fill="#60a5fa"/>
  <rect x="62" y="78" width="8" height="10" rx="1" fill="#93c5fd"/>
  
  <!-- AI 装饰点 -->
  <circle cx="25" cy="40" r="2" fill="#fbbf24" opacity="0.8"/>
  <circle cx="95" cy="40" r="2" fill="#fbbf24" opacity="0.8"/>
  <circle cx="30" cy="80" r="1.5" fill="#10b981" opacity="0.8"/>
  <circle cx="90" cy="80" r="1.5" fill="#10b981" opacity="0.8"/>
</svg>